<svg width="35" height="35" viewBox="0 0 35 35" fill="none" xmlns="http://www.w3.org/2000/svg">
<path fill-rule="evenodd" clip-rule="evenodd" d="M1.45833 1.45837C0.652918 1.45837 0 2.1113 0 2.91671C0 3.72212 0.652918 4.37504 1.45833 4.37504H4.6761L8.72845 21.7422C9.33163 24.3274 11.6008 26.1719 14.2402 26.2476V26.25H25.6483C28.4903 26.25 30.9187 24.202 31.3981 21.4006L33.2291 10.7003C33.5339 8.91878 32.1616 7.29171 30.3542 7.29171H8.35167L7.25352 2.58533C7.09952 1.9253 6.51109 1.45837 5.83333 1.45837H1.45833ZM9.03223 10.2084L11.5688 21.0795C11.8768 22.3995 13.0537 23.3334 14.4092 23.3334H25.6483C27.0693 23.3334 28.2835 22.3093 28.5232 20.9086L30.3542 10.2084H9.03223Z" fill="white"/>
<path d="M11.6667 33.5417C13.2775 33.5417 14.5833 32.2359 14.5833 30.625C14.5833 29.0142 13.2775 27.7084 11.6667 27.7084C10.0558 27.7084 8.75 29.0142 8.75 30.625C8.75 32.2359 10.0558 33.5417 11.6667 33.5417Z" fill="white"/>
<path d="M27.7084 33.5417C29.3193 33.5417 30.6251 32.2359 30.6251 30.625C30.6251 29.0142 29.3193 27.7084 27.7084 27.7084C26.0975 27.7084 24.7917 29.0142 24.7917 30.625C24.7917 32.2359 26.0975 33.5417 27.7084 33.5417Z" fill="white"/>
</svg>
